<svg xmlns="http://www.w3.org/2000/svg" width="56" height="50" viewBox="0 0 56 50" fill="none">
<path d="M24.9619 1.56247C24.9619 0.87888 25.4006 0.273411 26.0539 0.068333C26.7072 -0.136745 27.4093 0.107396 27.7993 0.664036L49.641 31.914C49.9726 32.3925 50.0116 33.0175 49.7483 33.5351C49.485 34.0527 48.9487 34.375 48.3637 34.375H26.522C25.6639 34.375 24.9619 33.6718 24.9619 32.8125V1.56247ZM20.6813 9.4238C21.3638 9.60935 21.8416 10.2246 21.8416 10.9375V32.8125C21.8416 33.6718 21.1396 34.375 20.2815 34.375H7.80052C7.24473 34.375 6.72794 34.082 6.45492 33.5937C6.1819 33.1054 6.17215 32.5195 6.44517 32.0312L18.9261 10.1562C19.2772 9.54099 19.9987 9.23825 20.6813 9.4238ZM0.555708 39.4824C0.272936 38.4863 1.02374 37.5 2.05733 37.5H54.1069C55.1405 37.5 55.8913 38.4863 55.6085 39.4824L55.2185 40.8789C53.6974 46.2793 48.7927 50 43.1958 50H12.9684C7.37149 50 2.46686 46.2793 0.945739 40.8886L0.555708 39.4922V39.4824Z" fill="white"/>
</svg>